<mxfile host="app.diagrams.net" modified="2023-09-29T10:02:48.298Z" agent="Mozilla/5.0 (Macintosh; Intel Mac OS X 10_15_7) AppleWebKit/537.36 (KHTML, like Gecko) Chrome/117.0.0.0 Safari/537.36" version="21.7.5" etag="Y4g9ZlOw3iXQlvu9jEg_" type="github">
  <diagram name="Page-1" id="HbLxrADZXHe9cz8H1eiE">
    <mxGraphModel>
      <root>
        <mxCell id="0" />
        <mxCell id="1" parent="0" />
      </root>
    </mxGraphModel>
  </diagram>
</mxfile>
